# xmcd
#
# Track frame offsets:
#	150
#	16247
#	34729
#	51610
#	80013
#	102823
#	115788
#	137398
#	160227
#	194735
#
# Disc length: 2770 seconds
#
# Revision: 0
# Processed by: cddbd v1.5.1PL0 Copyright (c) Steve Scherf et al.
# Submitted via: dBpowerAMP V4.0
#
DISCID=820ad00a
DTITLE=The Lydia Warren Band - Pass My Way
DYEAR=2003
DGENRE=Blues
TTITLE0=Give Me Time
TTITLE1=I Love you
TTITLE2=Leave
TTITLE3=Cape Cod
TTITLE4=Don't Need No
TTITLE5=Lonely Fool
TTITLE6=Never
TTITLE7=Nobody Likes You
TTITLE8=Respect Me Baby
TTITLE9=Bad Girl
EXTD=
EXTT0=
EXTT1=
EXTT2=
EXTT3=
EXTT4=
EXTT5=
EXTT6=
EXTT7=
EXTT8=
EXTT9=
PLAYORDER=
